<svg width="667.5724853515625px" height="222.8099609375px" xmlns="http://www.w3.org/2000/svg" viewBox="-83.78624267578124 -36.40498046875 667.5724853515625 222.8099609375" style="background: rgba(40, 41, 47, 0);" preserveAspectRatio="xMidYMid"><defs><filter id="editing-lego" x="-100%" y="-100%" width="300%" height="300%"><feFlood flood-color="#ffeb00" result="f1"></feFlood><feFlood flood-color="#000000" result="f2"></feFlood><feMorphology operator="dilate" radius="3" in="SourceAlpha"></feMorphology><feConvolveMatrix order="5,5" divisor="1" result="cm1" kernelMatrix="0 1 1 1 0  1 0 0 0 1  1 0 0 0 1  1 0 0 0 1  0 1 1 1 0"></feConvolveMatrix><feComposite operator="in" in="f1" in2="cm1" result="c1"></feComposite><feMorphology operator="dilate" radius="3"></feMorphology><feConvolveMatrix order="5,5" divisor="1" result="cm2" kernelMatrix="0 1 1 1 0  1 0 0 0 1  1 0 0 0 1  1 0 0 0 1  0 1 1 1 0"></feConvolveMatrix><feComposite operator="in" in="f2" in2="cm2" result="c2"></feComposite><feMerge><feMergeNode in="c2"></feMergeNode><feMergeNode in="c1"></feMergeNode><feMergeNode in="SourceGraphic"></feMergeNode></feMerge></filter></defs><g filter="url(#editing-lego)"><g transform="translate(18.165621757507324, 122.60000228881836)"><path d="M88.77-35.46L88.77-35.46L88.18-28.32L88.18-28.32Q85.44-28.56 82.29-28.56L82.29-28.56L82.29-28.56Q79.14-28.56 76.99-28.44L76.99-28.44L76.99-28.44Q75.33-15.35 74.85 0L74.85 0L66.52 0L66.52 0Q65.81-3.09 65.81-8.21L65.81-8.21L65.81-8.21Q65.81-13.33 66.10-17.08L66.10-17.08L66.10-17.08Q66.40-20.83 66.88-24.51L66.88-24.51L66.88-24.51Q67.35-28.20 67.35-28.80L67.35-28.80L67.35-28.80Q65.69-28.92 59.50-28.92L59.50-28.92L59.50-28.92Q53.31-28.92 50.93-28.68L50.93-28.68L50.93-28.68Q37.13-10.12 25.47-0.54L25.47-0.54L25.47-0.54Q13.80 9.04 2.14 9.04L2.14 9.04L2.14 9.04Q-3.57 9.04-7.44 5.59L-7.44 5.59L-7.44 5.59Q-11.31 2.14-11.31-3.57L-11.31-3.57L-11.31-3.57Q-11.31-14.40 5.18-23.32L5.18-23.32L5.18-23.32Q21.66-32.25 47.84-35.34L47.84-35.34L47.84-35.34Q50.93-40.10 59.38-50.04L59.38-50.04L59.38-50.04Q67.83-59.98 76.04-67.35L76.04-67.35L76.04-67.35Q79.61-75.68 81.69-78.96L81.69-78.96L81.69-78.96Q83.78-82.23 85.80-82.23L85.80-82.23L85.80-82.23Q87.82-82.23 89.13-80.68L89.13-80.68L89.13-80.68Q90.44-79.14 90.44-76.70L90.44-76.70L90.44-76.70Q90.44-74.26 87.76-69.56L87.76-69.56L87.76-69.56Q85.09-64.86 82.23-55.04L82.23-55.04L82.23-55.04Q79.37-45.22 78.30-36.53L78.30-36.53L78.30-36.53Q84.49-36.53 88.77-35.46ZM28.08-10.59L28.08-10.59L28.08-10.59Q37.96-19.99 42.96-28.44L42.96-28.44L42.96-28.44Q22.97-27.25 12.08-20.94L12.08-20.94L12.08-20.94Q1.19-14.64 1.19-7.50L1.19-7.50L1.19-7.50Q1.19-4.40 3.27-2.62L3.27-2.62L3.27-2.62Q5.36-0.83 8.81-0.83L8.81-0.83L8.81-0.83Q18.09-0.83 28.08-10.59ZM68.78-36.53L68.78-36.53L68.78-36.53Q69.62-40.58 70.98-46.71L70.98-46.71L70.98-46.71Q72.35-52.84 72.59-53.91L72.59-53.91L72.59-53.91Q66.88-48.43 64.62-45.87L64.62-45.87L64.62-45.87Q62.36-43.32 56.64-36.06L56.64-36.06L56.64-36.06Q58.67-36.18 61.58-36.24L61.58-36.24L61.58-36.24Q64.50-36.30 66.40-36.41L66.40-36.41L66.40-36.41Q68.31-36.53 68.78-36.53ZM116.14-32.73L116.14-32.73L116.14-32.73Q121.86-38.56 126.20-40.76L126.20-40.76L126.20-40.76Q130.54-42.96 134.41-42.96L134.41-42.96L134.41-42.96Q138.28-42.96 140.84-40.28L140.84-40.28L140.84-40.28Q143.40-37.60 143.40-33.32L143.40-33.32L143.40-33.32Q143.40-22.25 134.11-10.06L134.11-10.06L134.11-10.06Q124.83 2.14 114.12 2.14L114.12 2.14L114.12 2.14Q110.91 2.14 108.05 0.95L108.05 0.95L110.91-4.28L110.91-4.28Q112.81-3.81 113.88-3.81L113.88-3.81L113.88-3.81Q121.14-3.81 127.09-11.90L127.09-11.90L127.09-11.90Q133.04-19.99 133.04-27.85L133.04-27.85L133.04-27.85Q133.04-30.35 131.44-31.95L131.44-31.95L131.44-31.95Q129.83-33.56 127.33-33.56L127.33-33.56L127.33-33.56Q121.86-33.56 114.54-24.75L114.54-24.75L114.54-24.75Q107.22-15.95 101.75-1.79L101.75-1.79L94.49-4.76L94.49-4.76Q98.06-22.97 108.77-49.15L108.77-49.15L108.77-49.15Q119.48-75.33 126.62-86.16L126.62-86.16L132.69-84.01L132.69-84.01Q124.83-69.38 115.97-47.72L115.97-47.72L115.97-47.72Q107.10-26.06 105.55-18.33L105.55-18.33L105.55-18.33Q110.43-26.89 116.14-32.73ZM174.22-33.44L180.40-35.34L180.40-35.34Q183.50-30.23 183.50-24.04L183.50-24.04L183.50-24.04Q183.50-14.40 176.83-6.84L176.83-6.84L176.83-6.84Q170.17 0.71 161.13 0.71L161.13 0.71L161.13 0.71Q154.22 0.71 150.36-3.27L150.36-3.27L150.36-3.27Q146.49-7.26 146.49-14.28L146.49-14.28L146.49-14.28Q146.49-25.59 155.30-34.57L155.30-34.57L155.30-34.57Q164.10-43.55 175.05-43.55L175.05-43.55L175.05-43.55Q177.07-43.55 177.91-43.44L177.91-43.44L178.26-39.51L178.26-39.51Q168.74-39.51 162.44-34.03L162.44-34.03L162.44-34.03Q156.13-28.56 156.13-19.99L156.13-19.99L156.13-19.99Q156.13-14.88 158.63-11.72L158.63-11.72L158.63-11.72Q161.13-8.57 165.95-8.57L165.95-8.57L165.95-8.57Q170.77-8.57 173.62-12.85L173.62-12.85L173.62-12.85Q176.48-17.14 176.48-22.91L176.48-22.91L176.48-22.91Q176.48-28.68 174.22-33.44L174.22-33.44ZM233.60-13.09L233.60-13.09L236.10-11.07L236.10-11.07Q234.07-6.07 229.73-2.62L229.73-2.62L229.73-2.62Q225.39 0.83 221.88 0.83L221.88 0.83L221.88 0.83Q218.37 0.83 216.34-1.61L216.34-1.61L216.34-1.61Q214.32-4.05 214.32-7.97L214.32-7.97L214.32-7.97Q214.32-11.90 215.63-18.09L215.63-18.09L215.63-18.09Q210.04-9.28 203.61-4.28L203.61-4.28L203.61-4.28Q197.18 0.71 192.78 0.71L192.78 0.71L192.78 0.71Q186.12 0.71 186.12-8.81L186.12-8.81L186.12-8.81Q186.12-16.90 191.59-29.51L191.59-29.51L191.59-29.51Q197.06-42.13 199.56-44.15L199.56-44.15L205.28-41.65L205.28-41.65Q200.40-33.80 197.90-26.18L197.90-26.18L197.90-26.18Q195.40-18.56 195.40-16.01L195.40-16.01L195.40-16.01Q195.40-13.45 197.00-11.90L197.00-11.90L197.00-11.90Q198.61-10.35 200.75-10.35L200.75-10.35L200.75-10.35Q205.51-10.35 212.59-19.10L212.59-19.10L212.59-19.10Q219.67-27.85 227.05-45.22L227.05-45.22L233.12-42.48L233.12-42.48Q232.88-41.53 227.71-28.68L227.71-28.68L227.71-28.68Q222.53-15.83 222.53-13.27L222.53-13.27L222.53-13.27Q222.53-10.71 223.66-9.40L223.66-9.40L223.66-9.40Q224.79-8.09 225.92-8.09L225.92-8.09L225.92-8.09Q227.05-8.09 227.65-8.21L227.65-8.21L227.65-8.21Q228.24-8.33 228.84-8.69L228.84-8.69L228.84-8.69Q229.43-9.04 229.85-9.28L229.85-9.28L229.85-9.28Q230.27-9.52 230.86-10.12L230.86-10.12L231.81-10.95L231.81-10.95Q232.05-11.31 232.70-12.08L232.70-12.08L232.70-12.08Q233.36-12.85 233.60-13.09ZM266.08-13.33L266.08-13.33L268.70-10.35L268.70-10.35Q265.73-5.71 261.50-3.09L261.50-3.09L261.50-3.09Q257.28-0.48 252.99-0.48L252.99-0.48L252.99-0.48Q248.71-0.48 246.21-2.92L246.21-2.92L246.21-2.92Q243.71-5.36 243.71-9.64L243.71-9.64L243.71-9.64Q243.71-19.64 251.21-37.25L251.21-37.25L251.21-37.25Q245.14-36.30 239.07-34.39L239.07-34.39L238.24-39.03L238.12-39.15L238.12-39.15Q244.07-41.65 253.71-43.20L253.71-43.20L253.71-43.20Q254.66-44.98 257.99-51.88L257.99-51.88L257.99-51.88Q264.66-65.57 267.51-69.62L267.51-69.62L272.63-67.59L272.63-67.59Q271.44-64.97 268.46-58.85L268.46-58.85L268.46-58.85Q265.49-52.72 261.80-44.98L261.80-44.98L261.80-44.98Q267.16-45.34 270.25-45.34L270.25-45.34L270.25-45.34Q273.34-45.34 275.01-44.39L275.01-44.39L275.01-39.27L275.01-39.27Q273.34-39.63 270.19-39.63L270.19-39.63L270.19-39.63Q267.04-39.63 258.94-38.56L258.94-38.56L258.94-38.56Q251.92-22.85 251.92-15.71L251.92-15.71L251.92-15.71Q251.92-12.97 253.65-11.19L253.65-11.19L253.65-11.19Q255.37-9.40 258.29-9.40L258.29-9.40L258.29-9.40Q261.21-9.40 266.08-13.33ZM415.19-15.47L415.19-15.47L417.69-13.09L417.69-13.09Q410.91-0.95 402.10-0.95L402.10-0.95L402.10-0.95Q398.53-0.95 396.57-2.92L396.57-2.92L396.57-2.92Q394.60-4.88 394.60-8.15L394.60-8.15L394.60-8.15Q394.60-11.42 398.53-19.40L398.53-19.40L398.53-19.40Q402.46-27.37 402.70-31.54L402.70-31.54L402.70-31.54Q402.82-33.44 401.57-34.63L401.57-34.63L401.57-34.63Q400.32-35.82 398.17-35.82L398.17-35.82L398.17-35.82Q396.03-35.82 393.83-34.81L393.83-34.81L393.83-34.81Q391.63-33.80 389.55-31.54L389.55-31.54L389.55-31.54Q387.46-29.27 385.74-27.13L385.74-27.13L385.74-27.13Q384.01-24.99 381.93-21.06L381.93-21.06L381.93-21.06Q379.85-17.14 378.42-14.52L378.42-14.52L378.42-14.52Q375.92-9.64 371.28 0.12L371.28 0.12L364.14-2.38L364.14-2.38Q364.14-2.74 368.07-15.83L368.07-15.83L368.07-15.83Q371.99-28.92 371.99-31.42L371.99-31.42L371.99-31.42Q371.99-33.91 370.80-35.05L370.80-35.05L370.80-35.05Q369.61-36.18 367.83-36.18L367.83-36.18L367.83-36.18Q362.47-36.18 353.01-22.85L353.01-22.85L353.01-22.85Q343.55-9.52 340.94-0.12L340.94-0.12L334.15-2.38L334.15-2.38Q334.75-8.69 339.75-25.05L339.75-25.05L339.75-25.05Q344.74-41.41 348.19-47.36L348.19-47.36L353.55-45.46L353.55-45.46Q349.86-37.25 348.43-31.59L348.43-31.59L348.43-31.59Q347.00-25.94 345.93-19.52L345.93-19.52L345.93-19.52Q356.17-34.15 363.07-40.04L363.07-40.04L363.07-40.04Q369.97-45.93 375.56-45.93L375.56-45.93L375.56-45.93Q381.63-45.93 381.63-39.87L381.63-39.87L381.63-39.87Q381.63-37.48 379.55-30.46L379.55-30.46L379.55-30.46Q377.47-23.44 376.28-19.40L376.28-19.40L376.28-19.40Q392.70-45.82 405.67-45.82L405.67-45.82L405.67-45.82Q408.88-45.82 410.79-43.85L410.79-43.85L410.79-43.85Q412.69-41.89 412.69-38.02L412.69-38.02L412.69-38.02Q412.69-34.15 408.23-25.23L408.23-25.23L408.23-25.23Q403.77-16.30 403.77-13.98L403.77-13.98L403.77-13.98Q403.77-11.66 404.72-10.59L404.72-10.59L404.72-10.59Q405.67-9.52 407.10-9.52L407.10-9.52L407.10-9.52Q410.19-9.52 415.19-15.47ZM453.87-14.04L453.87-14.04L456.60-11.90L456.60-11.90Q452.91-6.78 446.49-3.39L446.49-3.39L446.49-3.39Q440.06 0 433.99 0L433.99 0L433.99 0Q427.92 0 424.24-3.57L424.24-3.57L424.24-3.57Q420.55-7.14 420.55-12.97L420.55-12.97L420.55-12.97Q420.55-23.92 432.15-34.51L432.15-34.51L432.15-34.51Q443.75-45.10 455.65-45.10L455.65-45.10L455.65-45.10Q463.51-45.10 463.51-38.91L463.51-38.91L463.51-38.91Q463.51-32.49 455.23-25.94L455.23-25.94L455.23-25.94Q446.96-19.40 431.97-14.04L431.97-14.04L431.97-14.04Q433.04-11.31 435.30-9.76L435.30-9.76L435.30-9.76Q437.56-8.21 439.94-8.21L439.94-8.21L439.94-8.21Q445.06-8.21 453.87-14.04ZM431.38-17.61L431.38-17.61L431.38-17.61Q441.01-20.94 447.92-25.94L447.92-25.94L447.92-25.94Q454.82-30.94 454.82-35.11L454.82-35.11L454.82-35.11Q454.82-36.65 453.63-37.84L453.63-37.84L453.63-37.84Q452.44-39.03 450.89-39.03L450.89-39.03L450.89-39.03Q445.30-39.03 438.81-32.07L438.81-32.07L438.81-32.07Q432.33-25.11 431.38-17.61Z" fill="#000000"></path></g></g><style>text {
  font-size: 64px;
  font-family: Arial Black;
  dominant-baseline: central;
  text-anchor: middle;
}</style></svg>