<svg width="1135.11494140625px" height="222.8099609375px" xmlns="http://www.w3.org/2000/svg" viewBox="-317.557470703125 -36.40498046875 1135.11494140625 222.8099609375" style="background: rgba(40, 41, 47, 0);" preserveAspectRatio="xMidYMid"><defs><filter id="editing-lego" x="-100%" y="-100%" width="300%" height="300%"><feFlood flood-color="#ffeb00" result="f1"></feFlood><feFlood flood-color="#000000" result="f2"></feFlood><feMorphology operator="dilate" radius="3" in="SourceAlpha"></feMorphology><feConvolveMatrix order="5,5" divisor="1" result="cm1" kernelMatrix="0 1 1 1 0  1 0 0 0 1  1 0 0 0 1  1 0 0 0 1  0 1 1 1 0"></feConvolveMatrix><feComposite operator="in" in="f1" in2="cm1" result="c1"></feComposite><feMorphology operator="dilate" radius="3"></feMorphology><feConvolveMatrix order="5,5" divisor="1" result="cm2" kernelMatrix="0 1 1 1 0  1 0 0 0 1  1 0 0 0 1  1 0 0 0 1  0 1 1 1 0"></feConvolveMatrix><feComposite operator="in" in="f2" in2="cm2" result="c2"></feComposite><feMerge><feMergeNode in="c2"></feMergeNode><feMergeNode in="c1"></feMergeNode><feMergeNode in="SourceGraphic"></feMergeNode></feMerge></filter></defs><g filter="url(#editing-lego)"><g transform="translate(-153.79064083099365, 142.3550033569336)"><path d="M62.48 0.95L62.48 0.95L60.69 5.00L60.69 5.00Q49.03 2.98 47.24 2.86L47.24 2.86L47.24 2.86Q41.41 18.68 30.58 27.85L30.58 27.85L30.58 27.85Q19.75 37.01 6.31 37.01L6.31 37.01L6.31 37.01Q-0.95 37.01-5.83 33.08L-5.83 33.08L-5.83 33.08Q-10.71 29.16-10.71 23.32L-10.71 23.32L-10.71 23.32Q-10.71 13.09 3.39 5.36L3.39 5.36L3.39 5.36Q17.49-2.38 37.60-2.38L37.60-2.38L37.60-2.38Q40.34-2.38 41.77-2.26L41.77-2.26L41.77-2.26Q43.91-6.78 45.22-11.90L45.22-11.90L45.22-11.90Q37.60-6.78 28.98-6.78L28.98-6.78L28.98-6.78Q20.35-6.78 14.58-12.91L14.58-12.91L14.58-12.91Q8.81-19.04 8.81-29.10L8.81-29.10L8.81-29.10Q8.81-39.15 15.53-50.28L15.53-50.28L15.53-50.28Q22.25-61.40 33.26-68.66L33.26-68.66L33.26-68.66Q44.27-75.92 55.69-75.92L55.69-75.92L55.69-75.92Q62.36-75.92 68.31-73.60L68.31-73.60L68.31-73.60Q74.26-71.28 77.23-68.07L77.23-68.07L70.81-60.33L70.81-60.33Q65.93-64.14 63.90-65.45L63.90-65.45L63.90-65.45Q58.67-69.02 52.72-69.02L52.72-69.02L52.72-69.02Q40.46-69.02 29.99-57.18L29.99-57.18L29.99-57.18Q19.52-45.34 19.52-31.42L19.52-31.42L19.52-31.42Q19.52-23.80 23.80-19.40L23.80-19.40L23.80-19.40Q28.08-14.99 35.05-14.99L35.05-14.99L35.05-14.99Q42.01-14.99 47.60-18.33L47.60-18.33L47.60-18.33Q54.50-36.53 60.45-36.53L60.45-36.53L60.45-36.53Q63.90-36.53 63.90-33.20L63.90-33.20L63.90-33.20Q63.90-29.87 61.34-25.53L61.34-25.53L61.34-25.53Q58.79-21.18 54.74-17.73L54.74-17.73L54.74-17.73Q49.86-4.64 49.03-2.02L49.03-2.02L49.03-2.02Q57.36-1.07 62.48 0.95ZM12.14 28.92L12.14 28.92L12.14 28.92Q20.23 28.92 28.14 21.42L28.14 21.42L28.14 21.42Q36.06 13.92 40.10 2.62L40.10 2.62L40.10 2.62Q24.04 2.62 12.91 8.03L12.91 8.03L12.91 8.03Q1.79 13.45 1.79 21.18L1.79 21.18L1.79 21.18Q1.79 24.75 4.58 26.83L4.58 26.83L4.58 26.83Q7.38 28.92 12.14 28.92ZM106.27-50.46L106.27-50.46L106.27-50.46Q99.60-50.46 99.60-55.81L99.60-55.81L99.60-55.81Q99.60-58.79 101.27-60.81L101.27-60.81L101.27-60.81Q102.94-62.83 105.55-62.83L105.55-62.83L105.55-62.83Q108.17-62.83 109.84-61.29L109.84-61.29L109.84-61.29Q111.50-59.74 111.50-57.24L111.50-57.24L111.50-57.24Q111.50-54.74 110.08-52.60L110.08-52.60L110.08-52.60Q108.65-50.46 106.27-50.46ZM104.72-15.35L104.72-15.35L107.10-13.33L107.10-13.33Q104.24-7.85 99.54-3.99L99.54-3.99L99.54-3.99Q94.84-0.12 91.03-0.12L91.03-0.12L91.03-0.12Q84.37-0.12 84.37-9.40L84.37-9.40L84.37-9.40Q84.37-20.94 93.89-39.51L93.89-39.51L93.89-39.51Q96.03-43.55 96.39-44.27L96.39-44.27L101.51-41.17L101.51-41.17Q99.01-36.65 95.38-26.78L95.38-26.78L95.38-26.78Q91.75-16.90 91.75-14.10L91.75-14.10L91.75-14.10Q91.75-11.31 92.94-10.12L92.94-10.12L92.94-10.12Q94.13-8.93 95.80-8.93L95.80-8.93L95.80-8.93Q99.01-8.93 104.72-15.35ZM141.73-13.33L141.73-13.33L144.35-10.35L144.35-10.35Q141.37-5.71 137.15-3.09L137.15-3.09L137.15-3.09Q132.92-0.48 128.64-0.48L128.64-0.48L128.64-0.48Q124.36-0.48 121.86-2.92L121.86-2.92L121.86-2.92Q119.36-5.36 119.36-9.64L119.36-9.64L119.36-9.64Q119.36-19.64 126.85-37.25L126.85-37.25L126.85-37.25Q120.79-36.30 114.72-34.39L114.72-34.39L113.88-39.03L113.76-39.15L113.76-39.15Q119.71-41.65 129.35-43.20L129.35-43.20L129.35-43.20Q130.31-44.98 133.64-51.88L133.64-51.88L133.64-51.88Q140.30-65.57 143.16-69.62L143.16-69.62L148.27-67.59L148.27-67.59Q147.08-64.97 144.11-58.85L144.11-58.85L144.11-58.85Q141.13-52.72 137.45-44.98L137.45-44.98L137.45-44.98Q142.80-45.34 145.89-45.34L145.89-45.34L145.89-45.34Q148.99-45.34 150.65-44.39L150.65-44.39L150.65-39.27L150.65-39.27Q148.99-39.63 145.83-39.63L145.83-39.63L145.83-39.63Q142.68-39.63 134.59-38.56L134.59-38.56L134.59-38.56Q127.57-22.85 127.57-15.71L127.57-15.71L127.57-15.71Q127.57-12.97 129.29-11.19L129.29-11.19L129.29-11.19Q131.02-9.40 133.93-9.40L133.93-9.40L133.93-9.40Q136.85-9.40 141.73-13.33ZM199.09-8.69L199.09-8.69L201.82-6.43L201.82-6.43Q196.83 1.90 188.85 1.90L188.85 1.90L188.85 1.90Q181.95 1.90 181.95-4.88L181.95-4.88L181.95-4.88Q181.95-8.81 185.34-17.43L185.34-17.43L185.34-17.43Q188.73-26.06 188.73-28.80L188.73-28.80L188.73-28.80Q188.73-32.25 184.33-32.25L184.33-32.25L184.33-32.25Q179.93-32.25 172.37-22.79L172.37-22.79L172.37-22.79Q164.82-13.33 159.70-0.83L159.70-0.83L152.68-3.33L152.68-3.33Q158.87-34.39 185.05-86.51L185.05-86.51L190.88-84.61L190.88-84.61Q177.67-58.19 171.96-42.60L171.96-42.60L171.96-42.60Q166.01-26.42 163.03-15.83L163.03-15.83L163.03-15.83Q172.19-30.94 178.80-36.77L178.80-36.77L178.80-36.77Q185.40-42.60 190.28-42.60L190.28-42.60L190.28-42.60Q199.09-42.60 199.09-36.30L199.09-36.30L199.09-36.30Q199.09-32.37 194.68-22.25L194.68-22.25L194.68-22.25Q190.28-12.14 190.28-8.81L190.28-8.81L190.28-8.81Q190.28-5.47 193.49-5.47L193.49-5.47L193.49-5.47Q195.16-5.47 199.09-8.69ZM252.40-13.09L252.40-13.09L254.90-11.07L254.90-11.07Q252.88-6.07 248.53-2.62L248.53-2.62L248.53-2.62Q244.19 0.83 240.68 0.83L240.68 0.83L240.68 0.83Q237.17 0.83 235.14-1.61L235.14-1.61L235.14-1.61Q233.12-4.05 233.12-7.97L233.12-7.97L233.12-7.97Q233.12-11.90 234.43-18.09L234.43-18.09L234.43-18.09Q228.84-9.28 222.41-4.28L222.41-4.28L222.41-4.28Q215.99 0.71 211.58 0.71L211.58 0.71L211.58 0.71Q204.92 0.71 204.92-8.81L204.92-8.81L204.92-8.81Q204.92-16.90 210.39-29.51L210.39-29.51L210.39-29.51Q215.87-42.13 218.37-44.15L218.37-44.15L224.08-41.65L224.08-41.65Q219.20-33.80 216.70-26.18L216.70-26.18L216.70-26.18Q214.20-18.56 214.20-16.01L214.20-16.01L214.20-16.01Q214.20-13.45 215.81-11.90L215.81-11.90L215.81-11.90Q217.41-10.35 219.56-10.35L219.56-10.35L219.56-10.35Q224.31-10.35 231.40-19.10L231.40-19.10L231.40-19.10Q238.48-27.85 245.85-45.22L245.85-45.22L251.92-42.48L251.92-42.48Q251.69-41.53 246.51-28.68L246.51-28.68L246.51-28.68Q241.33-15.83 241.33-13.27L241.33-13.27L241.33-13.27Q241.33-10.71 242.46-9.40L242.46-9.40L242.46-9.40Q243.59-8.09 244.72-8.09L244.72-8.09L244.72-8.09Q245.85-8.09 246.45-8.21L246.45-8.21L246.45-8.21Q247.04-8.33 247.64-8.69L247.64-8.69L247.64-8.69Q248.23-9.04 248.65-9.28L248.65-9.28L248.65-9.28Q249.07-9.52 249.66-10.12L249.66-10.12L250.61-10.95L250.61-10.95Q250.85-11.31 251.51-12.08L251.51-12.08L251.51-12.08Q252.16-12.85 252.40-13.09ZM277.98-32.73L277.98-32.73L277.98-32.73Q283.70-38.56 288.04-40.76L288.04-40.76L288.04-40.76Q292.38-42.96 296.25-42.96L296.25-42.96L296.25-42.96Q300.12-42.96 302.68-40.28L302.68-40.28L302.68-40.28Q305.24-37.60 305.24-33.32L305.24-33.32L305.24-33.32Q305.24-22.25 295.95-10.06L295.95-10.06L295.95-10.06Q286.67 2.14 275.96 2.14L275.96 2.14L275.96 2.14Q272.75 2.14 269.89 0.95L269.89 0.95L272.75-4.28L272.75-4.28Q274.65-3.81 275.72-3.81L275.72-3.81L275.72-3.81Q282.98-3.81 288.93-11.90L288.93-11.90L288.93-11.90Q294.88-19.99 294.88-27.85L294.88-27.85L294.88-27.85Q294.88-30.35 293.28-31.95L293.28-31.95L293.28-31.95Q291.67-33.56 289.17-33.56L289.17-33.56L289.17-33.56Q283.70-33.56 276.38-24.75L276.38-24.75L276.38-24.75Q269.06-15.95 263.59-1.79L263.59-1.79L256.33-4.76L256.33-4.76Q259.90-22.97 270.61-49.15L270.61-49.15L270.61-49.15Q281.32-75.33 288.46-86.16L288.46-86.16L294.53-84.01L294.53-84.01Q286.67-69.38 277.81-47.72L277.81-47.72L277.81-47.72Q268.94-26.06 267.39-18.33L267.39-18.33L267.39-18.33Q272.27-26.89 277.98-32.73ZM416.50-12.02L416.50-12.02L419.24-10.00L419.24-10.00Q417.57-6.43 413.11-3.21L413.11-3.21L413.11-3.21Q408.65 0 404.96 0L404.96 0L404.96 0Q397.94 0 397.94-7.38L397.94-7.38L397.94-7.38Q397.94-10.83 399.72-15.59L399.72-15.59L395.32-11.07L395.32-11.07Q388.89-4.52 384.19-2.26L384.19-2.26L384.19-2.26Q379.49 0 374.97 0L374.97 0L374.97 0Q370.45 0 368.13-2.56L368.13-2.56L368.13-2.56Q365.81-5.12 365.81-9.64L365.81-9.64L365.81-9.64Q365.81-17.97 372.23-26.12L372.23-26.12L372.23-26.12Q378.66-34.27 388.65-39.39L388.65-39.39L388.65-39.39Q398.65-44.51 408.65-44.63L408.65-44.63L408.88-40.70L403.89-39.63L403.89-39.63Q393.06-37.25 384.79-30.11L384.79-30.11L384.79-30.11Q376.52-22.97 376.52-15.89L376.52-15.89L376.52-15.89Q376.52-8.81 382.23-8.81L382.23-8.81L382.23-8.81Q387.58-8.81 395.44-16.30L395.44-16.30L395.44-16.30Q403.29-23.80 408.53-33.91L408.53-33.91L413.53-30.94L413.53-30.94Q406.15-16.07 406.15-12.02L406.15-12.02L406.15-12.02Q406.15-10.35 407.28-9.22L407.28-9.22L407.28-9.22Q408.41-8.09 409.54-8.09L409.54-8.09L409.54-8.09Q410.67-8.09 411.03-8.21L411.03-8.21L411.03-8.21Q411.38-8.33 411.74-8.51L411.74-8.51L411.74-8.51Q412.10-8.69 412.63-9.04L412.63-9.04L412.63-9.04Q413.17-9.40 413.58-9.76L413.58-9.76L413.58-9.76Q414.00-10.12 414.95-10.83L414.95-10.83L414.95-10.83Q415.91-11.54 416.50-12.02ZM471.12-14.40L471.12-14.40L473.62-12.50L473.62-12.50Q471.00-7.26 466.42-3.69L466.42-3.69L466.42-3.69Q461.84-0.12 458.15-0.12L458.15-0.12L458.15-0.12Q454.46-0.12 452.32-2.26L452.32-2.26L452.32-2.26Q450.18-4.40 450.18-7.62L450.18-7.62L450.18-7.62Q450.18-10.83 454.28-18.86L454.28-18.86L454.28-18.86Q458.39-26.89 458.39-30.70L458.39-30.70L458.39-30.70Q458.39-32.37 457.02-33.74L457.02-33.74L457.02-33.74Q455.65-35.11 453.75-35.11L453.75-35.11L453.75-35.11Q447.68-35.11 441.49-25.88L441.49-25.88L441.49-25.88Q435.30-16.66 427.69 0.71L427.69 0.71L420.55-1.79L420.55-1.79Q422.81-15.59 427.03-28.74L427.03-28.74L427.03-28.74Q431.26-41.89 434.83-47.60L434.83-47.60L439.71-46.05L439.71-46.05Q436.37-37.60 431.26-16.90L431.26-16.90L431.26-16.90Q447.68-44.98 461.48-44.98L461.48-44.98L461.48-44.98Q464.46-44.98 466.42-42.96L466.42-42.96L466.42-42.96Q468.38-40.94 468.38-38.20L468.38-38.20L468.38-38.20Q468.38-35.46 467.67-33.26L467.67-33.26L467.67-33.26Q466.96-31.06 463.21-23.03L463.21-23.03L463.21-23.03Q459.46-14.99 459.46-12.97L459.46-12.97L459.46-12.97Q459.46-10.95 460.65-9.82L460.65-9.82L460.65-9.82Q461.84-8.69 462.91-8.69L462.91-8.69L462.91-8.69Q463.98-8.69 464.70-9.04L464.70-9.04L464.70-9.04Q465.41-9.40 466.30-10.12L466.30-10.12L466.30-10.12Q467.19-10.83 467.91-11.42L467.91-11.42L467.91-11.42Q468.62-12.02 469.63-13.03L469.63-13.03L469.63-13.03Q470.65-14.04 471.12-14.40ZM527.53-12.02L527.53-12.02L530.26-10.00L530.26-10.00Q528.60-6.43 524.14-3.21L524.14-3.21L524.14-3.21Q519.67 0 515.98 0L515.98 0L515.98 0Q508.96 0 508.96-7.38L508.96-7.38L508.96-7.38Q508.96-10.83 510.75-15.59L510.75-15.59L506.35-11.07L506.35-11.07Q499.92-4.52 495.22-2.26L495.22-2.26L495.22-2.26Q490.52 0 486.00 0L486.00 0L486.00 0Q481.47 0 479.15-2.56L479.15-2.56L479.15-2.56Q476.83-5.12 476.83-9.64L476.83-9.64L476.83-9.64Q476.83-17.97 483.26-26.12L483.26-26.12L483.26-26.12Q489.69-34.27 499.68-39.39L499.68-39.39L499.68-39.39Q509.68-44.51 519.67-44.63L519.67-44.63L519.91-40.70L514.91-39.63L514.91-39.63Q504.08-37.25 495.81-30.11L495.81-30.11L495.81-30.11Q487.54-22.97 487.54-15.89L487.54-15.89L487.54-15.89Q487.54-8.81 493.26-8.81L493.26-8.81L493.26-8.81Q498.61-8.81 506.46-16.30L506.46-16.30L506.46-16.30Q514.32-23.80 519.55-33.91L519.55-33.91L524.55-30.94L524.55-30.94Q517.17-16.07 517.17-12.02L517.17-12.02L517.17-12.02Q517.17-10.35 518.30-9.22L518.30-9.22L518.30-9.22Q519.44-8.09 520.57-8.09L520.57-8.09L520.57-8.09Q521.70-8.09 522.05-8.21L522.05-8.21L522.05-8.21Q522.41-8.33 522.77-8.51L522.77-8.51L522.77-8.51Q523.12-8.69 523.66-9.04L523.66-9.04L523.66-9.04Q524.20-9.40 524.61-9.76L524.61-9.76L524.61-9.76Q525.03-10.12 525.98-10.83L525.98-10.83L525.98-10.83Q526.93-11.54 527.53-12.02ZM550.85-11.42L550.85-11.42L553.35-9.40L553.35-9.40Q549.30-3.09 546.39-0.30L546.39-0.30L546.39-0.30Q543.47 2.50 539.90 2.50L539.90 2.50L539.90 2.50Q536.33 2.50 534.07-0.36L534.07-0.36L534.07-0.36Q531.81-3.21 531.81-7.50L531.81-7.50L531.81-7.50Q531.81-15.83 542.76-43.38L542.76-43.38L542.76-43.38Q553.71-70.92 565.25-91.87L565.25-91.87L570.49-89.01L570.49-89.01Q558.82-66.40 549.42-44.09L549.42-44.09L549.42-44.09Q540.02-21.78 540.02-12.02L540.02-12.02L540.02-12.02Q540.02-6.43 544.19-6.43L544.19-6.43L544.19-6.43Q547.52-6.43 550.85-11.42ZM603.81-3.69L613.45-7.50L613.80-4.40L613.80-4.40Q613.33-4.05 602.74-0.12L602.74-0.12L602.74-0.12Q601.31 7.74 599.11 15.41L599.11 15.41L599.11 15.41Q596.90 23.09 594.70 27.07L594.70 27.07L594.70 27.07Q592.50 31.06 589.53 34.99L589.53 34.99L589.53 34.99Q583.58 42.84 573.46 42.84L573.46 42.84L573.46 42.84Q568.46 42.84 565.49 39.75L565.49 39.75L565.49 39.75Q562.51 36.65 562.51 31.30L562.51 31.30L562.51 31.30Q562.51 10.71 597.02-1.79L597.02-1.79L603.45-24.40L603.45-24.40Q593.22-9.04 585.00-5.47L585.00-5.47L585.00-5.47Q580.96-3.57 576.50-3.57L576.50-3.57L576.50-3.57Q572.03-3.57 569.36-6.43L569.36-6.43L569.36-6.43Q566.68-9.28 566.68-14.76L566.68-14.76L566.68-14.76Q566.68-20.23 570.43-30.05L570.43-30.05L570.43-30.05Q574.18-39.87 578.82-46.53L578.82-46.53L584.65-44.03L584.65-44.03Q584.29-43.67 581.32-37.72L581.32-37.72L581.32-37.72Q576.08-26.89 576.08-21.66L576.08-21.66L576.08-21.66Q576.08-16.42 578.10-14.64L578.10-14.64L578.10-14.64Q580.13-12.85 584.05-12.85L584.05-12.85L584.05-12.85Q587.98-12.85 592.92-17.55L592.92-17.55L592.92-17.55Q597.86-22.25 608.21-36.18L608.21-36.18L612.49-33.68L612.49-33.68Q611.54-29.75 608.27-19.46L608.27-19.46L608.27-19.46Q605.00-9.16 603.81-3.69L603.81-3.69ZM596.31 1.79L596.31 1.79L596.31 1.79Q588.81 5.24 583.10 9.64L583.10 9.64L583.10 9.64Q572.39 17.73 572.39 25.35L572.39 25.35L572.39 25.35Q572.39 28.20 574.06 29.99L574.06 29.99L574.06 29.99Q575.72 31.77 578.22 31.77L578.22 31.77L578.22 31.77Q590.12 31.77 596.31 1.79ZM657.12-46.53L657.12-46.53L656.05-41.89L656.05-41.89Q654.02-42.13 650.81-42.13L650.81-42.13L650.81-42.13Q638.91-42.13 638.91-34.27L638.91-34.27L638.91-34.27Q638.91-32.61 643.73-24.51L643.73-24.51L643.73-24.51Q648.55-16.42 648.55-13.69L648.55-13.69L648.55-13.69Q648.55-7.26 644.21-3.63L644.21-3.63L644.21-3.63Q639.86 0 632.60 0L632.60 0L632.60 0Q622.61 0 616.54-11.07L616.54-11.07L621.06-14.28L621.06-14.28Q622.73-12.97 624.63-11.13L624.63-11.13L624.63-11.13Q626.54-9.28 627.49-8.57L627.49-8.57L627.49-8.57Q629.75-6.55 632.49-6.55L632.49-6.55L632.49-6.55Q635.22-6.55 637.25-8.51L637.25-8.51L637.25-8.51Q639.27-10.47 639.27-13.39L639.27-13.39L639.27-13.39Q639.27-16.30 634.09-24.28L634.09-24.28L634.09-24.28Q628.92-32.25 628.92-35.46L628.92-35.46L628.92-35.46Q628.92-41.29 633.85-44.39L633.85-44.39L633.85-44.39Q638.79-47.48 646.82-47.48L646.82-47.48L646.82-47.48Q654.86-47.48 657.12-46.53ZM685.44-13.33L685.44-13.33L688.06-10.35L688.06-10.35Q685.08-5.71 680.86-3.09L680.86-3.09L680.86-3.09Q676.63-0.48 672.35-0.48L672.35-0.48L672.35-0.48Q668.07-0.48 665.57-2.92L665.57-2.92L665.57-2.92Q663.07-5.36 663.07-9.64L663.07-9.64L663.07-9.64Q663.07-19.64 670.57-37.25L670.57-37.25L670.57-37.25Q664.50-36.30 658.43-34.39L658.43-34.39L657.59-39.03L657.48-39.15L657.48-39.15Q663.43-41.65 673.06-43.20L673.06-43.20L673.06-43.20Q674.02-44.98 677.35-51.88L677.35-51.88L677.35-51.88Q684.01-65.57 686.87-69.62L686.87-69.62L691.99-67.59L691.99-67.59Q690.80-64.97 687.82-58.85L687.82-58.85L687.82-58.85Q684.85-52.72 681.16-44.98L681.16-44.98L681.16-44.98Q686.51-45.34 689.61-45.34L689.61-45.34L689.61-45.34Q692.70-45.34 694.37-44.39L694.37-44.39L694.37-39.27L694.37-39.27Q692.70-39.63 689.55-39.63L689.55-39.63L689.55-39.63Q686.39-39.63 678.30-38.56L678.30-38.56L678.30-38.56Q671.28-22.85 671.28-15.71L671.28-15.71L671.28-15.71Q671.28-12.97 673.00-11.19L673.00-11.19L673.00-11.19Q674.73-9.40 677.65-9.40L677.65-9.40L677.65-9.40Q680.56-9.40 685.44-13.33ZM721.14-50.46L721.14-50.46L721.14-50.46Q714.48-50.46 714.48-55.81L714.48-55.81L714.48-55.81Q714.48-58.79 716.14-60.81L716.14-60.81L716.14-60.81Q717.81-62.83 720.43-62.83L720.43-62.83L720.43-62.83Q723.04-62.83 724.71-61.29L724.71-61.29L724.71-61.29Q726.38-59.74 726.38-57.24L726.38-57.24L726.38-57.24Q726.38-54.74 724.95-52.60L724.95-52.60L724.95-52.60Q723.52-50.46 721.14-50.46ZM719.59-15.35L719.59-15.35L721.97-13.33L721.97-13.33Q719.12-7.85 714.42-3.99L714.42-3.99L714.42-3.99Q709.72-0.12 705.91-0.12L705.91-0.12L705.91-0.12Q699.24-0.12 699.24-9.40L699.24-9.40L699.24-9.40Q699.24-20.94 708.76-39.51L708.76-39.51L708.76-39.51Q710.91-43.55 711.26-44.27L711.26-44.27L716.38-41.17L716.38-41.17Q713.88-36.65 710.25-26.78L710.25-26.78L710.25-26.78Q706.62-16.90 706.62-14.10L706.62-14.10L706.62-14.10Q706.62-11.31 707.81-10.12L707.81-10.12L707.81-10.12Q709.00-8.93 710.67-8.93L710.67-8.93L710.67-8.93Q713.88-8.93 719.59-15.35ZM761.01-16.90L761.01-16.90L763.86-14.52L763.86-14.52Q761.01-7.97 754.70-4.05L754.70-4.05L754.70-4.05Q748.39-0.12 742.50-0.12L742.50-0.12L742.50-0.12Q736.61-0.12 732.74-3.81L732.74-3.81L732.74-3.81Q728.88-7.50 728.88-13.92L728.88-13.92L728.88-13.92Q728.88-20.35 734.47-27.85L734.47-27.85L734.47-27.85Q740.06-35.34 748.93-40.22L748.93-40.22L748.93-40.22Q757.79-45.10 766.36-45.10L766.36-45.10L766.36-45.10Q767.55-45.10 769.93-44.86L769.93-44.86L769.57-40.22L769.57-40.22Q756.48-39.63 747.86-32.25L747.86-32.25L747.86-32.25Q739.23-24.87 739.23-16.54L739.23-16.54L739.23-16.54Q739.23-13.09 741.37-10.95L741.37-10.95L741.37-10.95Q743.51-8.81 746.96-8.81L746.96-8.81L746.96-8.81Q752.44-8.81 761.01-16.90ZM808.01-46.53L808.01-46.53L806.94-41.89L806.94-41.89Q804.92-42.13 801.70-42.13L801.70-42.13L801.70-42.13Q789.80-42.13 789.80-34.27L789.80-34.27L789.80-34.27Q789.80-32.61 794.62-24.51L794.62-24.51L794.62-24.51Q799.44-16.42 799.44-13.69L799.44-13.69L799.44-13.69Q799.44-7.26 795.10-3.63L795.10-3.63L795.10-3.63Q790.76 0 783.50 0L783.50 0L783.50 0Q773.50 0 767.43-11.07L767.43-11.07L771.95-14.28L771.95-14.28Q773.62-12.97 775.52-11.13L775.52-11.13L775.52-11.13Q777.43-9.28 778.38-8.57L778.38-8.57L778.38-8.57Q780.64-6.55 783.38-6.55L783.38-6.55L783.38-6.55Q786.11-6.55 788.14-8.51L788.14-8.51L788.14-8.51Q790.16-10.47 790.16-13.39L790.16-13.39L790.16-13.39Q790.16-16.30 784.98-24.28L784.98-24.28L784.98-24.28Q779.81-32.25 779.81-35.46L779.81-35.46L779.81-35.46Q779.81-41.29 784.75-44.39L784.75-44.39L784.75-44.39Q789.68-47.48 797.72-47.48L797.72-47.48L797.72-47.48Q805.75-47.48 808.01-46.53Z" fill="#000000"></path></g></g><style>text {
  font-size: 64px;
  font-family: Arial Black;
  dominant-baseline: central;
  text-anchor: middle;
}</style></svg>