<svg width="1325.1962890625px" height="222.8099609375px" xmlns="http://www.w3.org/2000/svg" viewBox="-412.59814453125 -36.40498046875 1325.1962890625 222.8099609375" style="background: rgba(40, 41, 47, 0);" preserveAspectRatio="xMidYMid"><defs><filter id="editing-lego" x="-100%" y="-100%" width="300%" height="300%"><feFlood flood-color="#ffeb00" result="f1"></feFlood><feFlood flood-color="#000000" result="f2"></feFlood><feMorphology operator="dilate" radius="3" in="SourceAlpha"></feMorphology><feConvolveMatrix order="5,5" divisor="1" result="cm1" kernelMatrix="0 1 1 1 0  1 0 0 0 1  1 0 0 0 1  1 0 0 0 1  0 1 1 1 0"></feConvolveMatrix><feComposite operator="in" in="f1" in2="cm1" result="c1"></feComposite><feMorphology operator="dilate" radius="3"></feMorphology><feConvolveMatrix order="5,5" divisor="1" result="cm2" kernelMatrix="0 1 1 1 0  1 0 0 0 1  1 0 0 0 1  1 0 0 0 1  0 1 1 1 0"></feConvolveMatrix><feComposite operator="in" in="f2" in2="cm2" result="c2"></feComposite><feMerge><feMergeNode in="c2"></feMergeNode><feMergeNode in="c1"></feMergeNode><feMergeNode in="SourceGraphic"></feMergeNode></feMerge></filter></defs><g filter="url(#editing-lego)"><g transform="translate(-229.62344121932983, 143.84500122070312)"><path d="M20.83-11.07L20.83-11.07L45.58-10.35L45.58-10.35Q50.81-10.35 55.69-13.80L55.69-13.80L58.91-9.52L58.91-9.52Q56.53-6.78 55.10-5.41L55.10-5.41L55.10-5.41Q53.67-4.05 50.87-2.74L50.87-2.74L50.87-2.74Q48.08-1.43 44.63-1.43L44.63-1.43L22.37-2.38L22.37-2.38Q7.50-2.38 7.85-2.02L7.85-2.02L7.85-2.02Q3.45-2.14 3.45-5.95L3.45-5.95L3.45-5.95Q3.81-8.33 6.66-13.86L6.66-13.86L6.66-13.86Q9.52-19.40 14.40-33.91L14.40-33.91L14.40-33.91Q7.02-33.91 1.19-38.32L1.19-38.32L3.69-42.72L3.69-42.72Q8.81-39.39 16.18-39.39L16.18-39.39L16.18-39.39Q23.09-56.29 33.68-64.74L33.68-64.74L33.68-64.74Q44.27-73.19 55.81-73.19L55.81-73.19L55.81-73.19Q61.29-73.19 64.62-70.39L64.62-70.39L64.62-70.39Q67.95-67.59 67.95-62.95L67.95-62.95L67.95-62.95Q67.95-52.96 54.80-44.21L54.80-44.21L54.80-44.21Q41.65-35.46 24.87-34.39L24.87-34.39L24.87-34.39Q19.40-17.02 12.61-10.71L12.61-10.71L12.61-10.71Q15.59-11.07 20.83-11.07ZM49.27-66.76L49.27-66.76L49.27-66.76Q41.89-66.76 35.58-59.26L35.58-59.26L35.58-59.26Q29.27-51.77 26.54-39.87L26.54-39.87L26.54-39.87Q38.44-40.70 47.36-47.01L47.36-47.01L47.36-47.01Q56.29-53.31 56.29-60.21L56.29-60.21L56.29-60.21Q56.29-62.95 54.26-64.86L54.26-64.86L54.26-64.86Q52.24-66.76 49.27-66.76ZM121.38-12.02L121.38-12.02L124.12-10.00L124.12-10.00Q122.45-6.43 117.99-3.21L117.99-3.21L117.99-3.21Q113.53 0 109.84 0L109.84 0L109.84 0Q102.82 0 102.82-7.38L102.82-7.38L102.82-7.38Q102.82-10.83 104.60-15.59L104.60-15.59L100.20-11.07L100.20-11.07Q93.77-4.52 89.07-2.26L89.07-2.26L89.07-2.26Q84.37 0 79.85 0L79.85 0L79.85 0Q75.33 0 73.01-2.56L73.01-2.56L73.01-2.56Q70.69-5.12 70.69-9.64L70.69-9.64L70.69-9.64Q70.69-17.97 77.11-26.12L77.11-26.12L77.11-26.12Q83.54-34.27 93.53-39.39L93.53-39.39L93.53-39.39Q103.53-44.51 113.53-44.63L113.53-44.63L113.76-40.70L108.77-39.63L108.77-39.63Q97.94-37.25 89.67-30.11L89.67-30.11L89.67-30.11Q81.40-22.97 81.40-15.89L81.40-15.89L81.40-15.89Q81.40-8.81 87.11-8.81L87.11-8.81L87.11-8.81Q92.46-8.81 100.32-16.30L100.32-16.30L100.32-16.30Q108.17-23.80 113.41-33.91L113.41-33.91L118.41-30.94L118.41-30.94Q111.03-16.07 111.03-12.02L111.03-12.02L111.03-12.02Q111.03-10.35 112.16-9.22L112.16-9.22L112.16-9.22Q113.29-8.09 114.42-8.09L114.42-8.09L114.42-8.09Q115.55-8.09 115.91-8.21L115.91-8.21L115.91-8.21Q116.26-8.33 116.62-8.51L116.62-8.51L116.62-8.51Q116.98-8.69 117.51-9.04L117.51-9.04L117.51-9.04Q118.05-9.40 118.46-9.76L118.46-9.76L118.46-9.76Q118.88-10.12 119.83-10.83L119.83-10.83L119.83-10.83Q120.79-11.54 121.38-12.02ZM176.00-14.40L176.00-14.40L178.50-12.50L178.50-12.50Q175.88-7.26 171.30-3.69L171.30-3.69L171.30-3.69Q166.72-0.12 163.03-0.12L163.03-0.12L163.03-0.12Q159.34-0.12 157.20-2.26L157.20-2.26L157.20-2.26Q155.06-4.40 155.06-7.62L155.06-7.62L155.06-7.62Q155.06-10.83 159.16-18.86L159.16-18.86L159.16-18.86Q163.27-26.89 163.27-30.70L163.27-30.70L163.27-30.70Q163.27-32.37 161.90-33.74L161.90-33.74L161.90-33.74Q160.53-35.11 158.63-35.11L158.63-35.11L158.63-35.11Q152.56-35.11 146.37-25.88L146.37-25.88L146.37-25.88Q140.18-16.66 132.57 0.71L132.57 0.71L125.43-1.79L125.43-1.79Q127.69-15.59 131.91-28.74L131.91-28.74L131.91-28.74Q136.14-41.89 139.71-47.60L139.71-47.60L144.59-46.05L144.59-46.05Q141.25-37.60 136.14-16.90L136.14-16.90L136.14-16.90Q152.56-44.98 166.36-44.98L166.36-44.98L166.36-44.98Q169.34-44.98 171.30-42.96L171.30-42.96L171.30-42.96Q173.26-40.94 173.26-38.20L173.26-38.20L173.26-38.20Q173.26-35.46 172.55-33.26L172.55-33.26L172.55-33.26Q171.84-31.06 168.09-23.03L168.09-23.03L168.09-23.03Q164.34-14.99 164.34-12.97L164.34-12.97L164.34-12.97Q164.34-10.95 165.53-9.82L165.53-9.82L165.53-9.82Q166.72-8.69 167.79-8.69L167.79-8.69L167.79-8.69Q168.86-8.69 169.58-9.04L169.58-9.04L169.58-9.04Q170.29-9.40 171.18-10.12L171.18-10.12L171.18-10.12Q172.07-10.83 172.79-11.42L172.79-11.42L172.79-11.42Q173.50-12.02 174.51-13.03L174.51-13.03L174.51-13.03Q175.53-14.04 176.00-14.40ZM222.65-1.07L232.65-4.28L232.76-1.43L232.76-1.43Q231.57-0.71 221.94 2.86L221.94 2.86L221.94 2.86Q218.13 25.59 210.75 35.70L210.75 35.70L210.75 35.70Q203.37 45.82 192.66 45.82L192.66 45.82L192.66 45.82Q187.66 45.82 184.69 42.60L184.69 42.60L184.69 42.60Q181.71 39.39 181.71 34.27L181.71 34.27L181.71 34.27Q181.71 24.04 191.11 15.17L191.11 15.17L191.11 15.17Q200.52 6.31 216.22 1.19L216.22 1.19L216.22 1.19Q218.01-6.78 222.65-21.30L222.65-21.30L222.65-21.30Q214.68-9.16 208.19-4.88L208.19-4.88L208.19-4.88Q201.71-0.60 196.47-0.60L196.47-0.60L196.47-0.60Q191.23-0.60 188.56-3.45L188.56-3.45L188.56-3.45Q185.88-6.31 185.88-11.07L185.88-11.07L185.88-11.07Q185.88-18.92 192.42-27.07L192.42-27.07L192.42-27.07Q198.97-35.22 208.90-40.40L208.90-40.40L208.90-40.40Q218.84-45.58 228.12-45.58L228.12-45.58L229.08-41.41L229.08-41.41Q215.87-39.98 206.41-32.13L206.41-32.13L206.41-32.13Q196.95-24.28 196.95-17.02L196.95-17.02L196.95-17.02Q196.95-13.92 198.85-11.90L198.85-11.90L198.85-11.90Q200.75-9.88 203.49-9.88L203.49-9.88L203.49-9.88Q207.54-9.88 215.75-18.45L215.75-18.45L215.75-18.45Q223.96-27.01 227.29-33.08L227.29-33.08L231.69-30.58L231.69-30.58Q225.15-13.09 222.65-1.07L222.65-1.07ZM215.51 4.76L215.51 4.76L215.51 4.76Q205.16 9.52 198.37 16.18L198.37 16.18L198.37 16.18Q191.59 22.85 191.59 28.32L191.59 28.32L191.59 28.32Q191.59 31.18 193.26 32.96L193.26 32.96L193.26 32.96Q194.92 34.75 197.42 34.75L197.42 34.75L197.42 34.75Q202.42 34.75 207.30 27.73L207.30 27.73L207.30 27.73Q212.18 20.71 215.51 4.76ZM282.51-13.09L282.51-13.09L285.01-11.07L285.01-11.07Q282.98-6.07 278.64-2.62L278.64-2.62L278.64-2.62Q274.30 0.83 270.78 0.83L270.78 0.83L270.78 0.83Q267.27 0.83 265.25-1.61L265.25-1.61L265.25-1.61Q263.23-4.05 263.23-7.97L263.23-7.97L263.23-7.97Q263.23-11.90 264.54-18.09L264.54-18.09L264.54-18.09Q258.94-9.28 252.52-4.28L252.52-4.28L252.52-4.28Q246.09 0.71 241.69 0.71L241.69 0.71L241.69 0.71Q235.03 0.71 235.03-8.81L235.03-8.81L235.03-8.81Q235.03-16.90 240.50-29.51L240.50-29.51L240.50-29.51Q245.97-42.13 248.47-44.15L248.47-44.15L254.18-41.65L254.18-41.65Q249.31-33.80 246.81-26.18L246.81-26.18L246.81-26.18Q244.31-18.56 244.31-16.01L244.31-16.01L244.31-16.01Q244.31-13.45 245.91-11.90L245.91-11.90L245.91-11.90Q247.52-10.35 249.66-10.35L249.66-10.35L249.66-10.35Q254.42-10.35 261.50-19.10L261.50-19.10L261.50-19.10Q268.58-27.85 275.96-45.22L275.96-45.22L282.03-42.48L282.03-42.48Q281.79-41.53 276.62-28.68L276.62-28.68L276.62-28.68Q271.44-15.83 271.44-13.27L271.44-13.27L271.44-13.27Q271.44-10.71 272.57-9.40L272.57-9.40L272.57-9.40Q273.70-8.09 274.83-8.09L274.83-8.09L274.83-8.09Q275.96-8.09 276.56-8.21L276.56-8.21L276.56-8.21Q277.15-8.33 277.75-8.69L277.75-8.69L277.75-8.69Q278.34-9.04 278.76-9.28L278.76-9.28L278.76-9.28Q279.17-9.52 279.77-10.12L279.77-10.12L280.72-10.95L280.72-10.95Q280.96-11.31 281.61-12.08L281.61-12.08L281.61-12.08Q282.27-12.85 282.51-13.09ZM338.20-12.02L338.20-12.02L340.94-10.00L340.94-10.00Q339.27-6.43 334.81-3.21L334.81-3.21L334.81-3.21Q330.34 0 326.66 0L326.66 0L326.66 0Q319.63 0 319.63-7.38L319.63-7.38L319.63-7.38Q319.63-10.83 321.42-15.59L321.42-15.59L317.02-11.07L317.02-11.07Q310.59-4.52 305.89-2.26L305.89-2.26L305.89-2.26Q301.19 0 296.67 0L296.67 0L296.67 0Q292.15 0 289.82-2.56L289.82-2.56L289.82-2.56Q287.50-5.12 287.50-9.64L287.50-9.64L287.50-9.64Q287.50-17.97 293.93-26.12L293.93-26.12L293.93-26.12Q300.36-34.27 310.35-39.39L310.35-39.39L310.35-39.39Q320.35-44.51 330.34-44.63L330.34-44.63L330.58-40.70L325.58-39.63L325.58-39.63Q314.76-37.25 306.48-30.11L306.48-30.11L306.48-30.11Q298.21-22.97 298.21-15.89L298.21-15.89L298.21-15.89Q298.21-8.81 303.93-8.81L303.93-8.81L303.93-8.81Q309.28-8.81 317.14-16.30L317.14-16.30L317.14-16.30Q324.99-23.80 330.23-33.91L330.23-33.91L335.22-30.94L335.22-30.94Q327.85-16.07 327.85-12.02L327.85-12.02L327.85-12.02Q327.85-10.35 328.98-9.22L328.98-9.22L328.98-9.22Q330.11-8.09 331.24-8.09L331.24-8.09L331.24-8.09Q332.37-8.09 332.72-8.21L332.72-8.21L332.72-8.21Q333.08-8.33 333.44-8.51L333.44-8.51L333.44-8.51Q333.80-8.69 334.33-9.04L334.33-9.04L334.33-9.04Q334.87-9.40 335.28-9.76L335.28-9.76L335.28-9.76Q335.70-10.12 336.65-10.83L336.65-10.83L336.65-10.83Q337.60-11.54 338.20-12.02ZM384.25-1.07L394.25-4.28L394.37-1.43L394.37-1.43Q393.18-0.71 383.54 2.86L383.54 2.86L383.54 2.86Q379.73 25.59 372.35 35.70L372.35 35.70L372.35 35.70Q364.97 45.82 354.26 45.82L354.26 45.82L354.26 45.82Q349.27 45.82 346.29 42.60L346.29 42.60L346.29 42.60Q343.32 39.39 343.32 34.27L343.32 34.27L343.32 34.27Q343.32 24.04 352.72 15.17L352.72 15.17L352.72 15.17Q362.12 6.31 377.83 1.19L377.83 1.19L377.83 1.19Q379.61-6.78 384.25-21.30L384.25-21.30L384.25-21.30Q376.28-9.16 369.79-4.88L369.79-4.88L369.79-4.88Q363.31-0.60 358.07-0.60L358.07-0.60L358.07-0.60Q352.84-0.60 350.16-3.45L350.16-3.45L350.16-3.45Q347.48-6.31 347.48-11.07L347.48-11.07L347.48-11.07Q347.48-18.92 354.03-27.07L354.03-27.07L354.03-27.07Q360.57-35.22 370.51-40.40L370.51-40.40L370.51-40.40Q380.44-45.58 389.73-45.58L389.73-45.58L390.68-41.41L390.68-41.41Q377.47-39.98 368.01-32.13L368.01-32.13L368.01-32.13Q358.55-24.28 358.55-17.02L358.55-17.02L358.55-17.02Q358.55-13.92 360.45-11.90L360.45-11.90L360.45-11.90Q362.36-9.88 365.09-9.88L365.09-9.88L365.09-9.88Q369.14-9.88 377.35-18.45L377.35-18.45L377.35-18.45Q385.56-27.01 388.89-33.08L388.89-33.08L393.30-30.58L393.30-30.58Q386.75-13.09 384.25-1.07L384.25-1.07ZM377.11 4.76L377.11 4.76L377.11 4.76Q366.76 9.52 359.98 16.18L359.98 16.18L359.98 16.18Q353.19 22.85 353.19 28.32L353.19 28.32L353.19 28.32Q353.19 31.18 354.86 32.96L354.86 32.96L354.86 32.96Q356.52 34.75 359.02 34.75L359.02 34.75L359.02 34.75Q364.02 34.75 368.90 27.73L368.90 27.73L368.90 27.73Q373.78 20.71 377.11 4.76ZM429.71-14.04L429.71-14.04L432.45-11.90L432.45-11.90Q428.76-6.78 422.33-3.39L422.33-3.39L422.33-3.39Q415.91 0 409.84 0L409.84 0L409.84 0Q403.77 0 400.08-3.57L400.08-3.57L400.08-3.57Q396.39-7.14 396.39-12.97L396.39-12.97L396.39-12.97Q396.39-23.92 407.99-34.51L407.99-34.51L407.99-34.51Q419.59-45.10 431.49-45.10L431.49-45.10L431.49-45.10Q439.35-45.10 439.35-38.91L439.35-38.91L439.35-38.91Q439.35-32.49 431.08-25.94L431.08-25.94L431.08-25.94Q422.81-19.40 407.81-14.04L407.81-14.04L407.81-14.04Q408.88-11.31 411.15-9.76L411.15-9.76L411.15-9.76Q413.41-8.21 415.79-8.21L415.79-8.21L415.79-8.21Q420.90-8.21 429.71-14.04ZM407.22-17.61L407.22-17.61L407.22-17.61Q416.86-20.94 423.76-25.94L423.76-25.94L423.76-25.94Q430.66-30.94 430.66-35.11L430.66-35.11L430.66-35.11Q430.66-36.65 429.47-37.84L429.47-37.84L429.47-37.84Q428.28-39.03 426.73-39.03L426.73-39.03L426.73-39.03Q421.14-39.03 414.66-32.07L414.66-32.07L414.66-32.07Q408.17-25.11 407.22-17.61ZM477.79-46.53L477.79-46.53L476.71-41.89L476.71-41.89Q474.69-42.13 471.48-42.13L471.48-42.13L471.48-42.13Q459.58-42.13 459.58-34.27L459.58-34.27L459.58-34.27Q459.58-32.61 464.40-24.51L464.40-24.51L464.40-24.51Q469.22-16.42 469.22-13.69L469.22-13.69L469.22-13.69Q469.22-7.26 464.87-3.63L464.87-3.63L464.87-3.63Q460.53 0 453.27 0L453.27 0L453.27 0Q443.28 0 437.21-11.07L437.21-11.07L441.73-14.28L441.73-14.28Q443.39-12.97 445.30-11.13L445.30-11.13L445.30-11.13Q447.20-9.28 448.15-8.57L448.15-8.57L448.15-8.57Q450.42-6.55 453.15-6.55L453.15-6.55L453.15-6.55Q455.89-6.55 457.91-8.51L457.91-8.51L457.91-8.51Q459.94-10.47 459.94-13.39L459.94-13.39L459.94-13.39Q459.94-16.30 454.76-24.28L454.76-24.28L454.76-24.28Q449.58-32.25 449.58-35.46L449.58-35.46L449.58-35.46Q449.58-41.29 454.52-44.39L454.52-44.39L454.52-44.39Q459.46-47.48 467.49-47.48L467.49-47.48L467.49-47.48Q475.52-47.48 477.79-46.53ZM586.43-12.02L586.43-12.02L589.17-10.00L589.17-10.00Q587.50-6.43 583.04-3.21L583.04-3.21L583.04-3.21Q578.58 0 574.89 0L574.89 0L574.89 0Q567.87 0 567.87-7.38L567.87-7.38L567.87-7.38Q567.87-10.83 569.65-15.59L569.65-15.59L565.25-11.07L565.25-11.07Q558.82-4.52 554.12-2.26L554.12-2.26L554.12-2.26Q549.42 0 544.90 0L544.90 0L544.90 0Q540.38 0 538.06-2.56L538.06-2.56L538.06-2.56Q535.74-5.12 535.74-9.64L535.74-9.64L535.74-9.64Q535.74-17.97 542.16-26.12L542.16-26.12L542.16-26.12Q548.59-34.27 558.59-39.39L558.59-39.39L558.59-39.39Q568.58-44.51 578.58-44.63L578.58-44.63L578.82-40.70L573.82-39.63L573.82-39.63Q562.99-37.25 554.72-30.11L554.72-30.11L554.72-30.11Q546.45-22.97 546.45-15.89L546.45-15.89L546.45-15.89Q546.45-8.81 552.16-8.81L552.16-8.81L552.16-8.81Q557.51-8.81 565.37-16.30L565.37-16.30L565.37-16.30Q573.22-23.80 578.46-33.91L578.46-33.91L583.46-30.94L583.46-30.94Q576.08-16.07 576.08-12.02L576.08-12.02L576.08-12.02Q576.08-10.35 577.21-9.22L577.21-9.22L577.21-9.22Q578.34-8.09 579.47-8.09L579.47-8.09L579.47-8.09Q580.60-8.09 580.96-8.21L580.96-8.21L580.96-8.21Q581.32-8.33 581.67-8.51L581.67-8.51L581.67-8.51Q582.03-8.69 582.56-9.04L582.56-9.04L582.56-9.04Q583.10-9.40 583.52-9.76L583.52-9.76L583.52-9.76Q583.93-10.12 584.88-10.83L584.88-10.83L584.88-10.83Q585.84-11.54 586.43-12.02ZM641.05-14.40L641.05-14.40L643.55-12.50L643.55-12.50Q640.93-7.26 636.35-3.69L636.35-3.69L636.35-3.69Q631.77-0.12 628.08-0.12L628.08-0.12L628.08-0.12Q624.39-0.12 622.25-2.26L622.25-2.26L622.25-2.26Q620.11-4.40 620.11-7.62L620.11-7.62L620.11-7.62Q620.11-10.83 624.21-18.86L624.21-18.86L624.21-18.86Q628.32-26.89 628.32-30.70L628.32-30.70L628.32-30.70Q628.32-32.37 626.95-33.74L626.95-33.74L626.95-33.74Q625.58-35.11 623.68-35.11L623.68-35.11L623.68-35.11Q617.61-35.11 611.42-25.88L611.42-25.88L611.42-25.88Q605.23-16.66 597.62 0.71L597.62 0.71L590.48-1.79L590.48-1.79Q592.74-15.59 596.96-28.74L596.96-28.74L596.96-28.74Q601.19-41.89 604.76-47.60L604.76-47.60L609.64-46.05L609.64-46.05Q606.31-37.60 601.19-16.90L601.19-16.90L601.19-16.90Q617.61-44.98 631.41-44.98L631.41-44.98L631.41-44.98Q634.39-44.98 636.35-42.96L636.35-42.96L636.35-42.96Q638.32-40.94 638.32-38.20L638.32-38.20L638.32-38.20Q638.32-35.46 637.60-33.26L637.60-33.26L637.60-33.26Q636.89-31.06 633.14-23.03L633.14-23.03L633.14-23.03Q629.39-14.99 629.39-12.97L629.39-12.97L629.39-12.97Q629.39-10.95 630.58-9.82L630.58-9.82L630.58-9.82Q631.77-8.69 632.84-8.69L632.84-8.69L632.84-8.69Q633.91-8.69 634.63-9.04L634.63-9.04L634.63-9.04Q635.34-9.40 636.23-10.12L636.23-10.12L636.23-10.12Q637.13-10.83 637.84-11.42L637.84-11.42L637.84-11.42Q638.55-12.02 639.57-13.03L639.57-13.03L639.57-13.03Q640.58-14.04 641.05-14.40ZM713.52-87.94L713.52-87.94L719.59-85.80L717.93-82.71L717.93-82.71Q704.84-58.31 695.67-35.46L695.67-35.46L695.67-35.46Q689.61-20.47 689.61-12.97L689.61-12.97L689.61-12.97Q689.61-11.07 690.56-9.94L690.56-9.94L690.56-9.94Q691.51-8.81 693.59-8.81L693.59-8.81L693.59-8.81Q695.67-8.81 698.41-11.54L698.41-11.54L700.55-9.52L700.55-9.52Q699.01-6.07 695.20-3.15L695.20-3.15L695.20-3.15Q691.39-0.24 687.82-0.24L687.82-0.24L687.82-0.24Q680.92-0.24 680.92-8.33L680.92-8.33L680.92-8.33Q680.92-13.09 683.54-22.97L683.54-22.97L683.54-22.97Q669.49 1.55 656.05 1.55L656.05 1.55L656.05 1.55Q651.41 1.55 648.67-1.31L648.67-1.31L648.67-1.31Q645.93-4.17 645.93-9.04L645.93-9.04L645.93-9.04Q645.93-16.78 652.12-25.11L652.12-25.11L652.12-25.11Q658.31-33.44 667.35-38.73L667.35-38.73L667.35-38.73Q676.40-44.03 684.25-44.03L684.25-44.03L684.61-39.87L684.61-39.87Q674.37-38.56 665.51-31.00L665.51-31.00L665.51-31.00Q656.64-23.44 656.64-15.59L656.64-15.59L656.64-15.59Q656.64-12.26 658.43-10.29L658.43-10.29L658.43-10.29Q660.21-8.33 663.07-8.33L663.07-8.33L663.07-8.33Q668.90-8.33 678.30-20.83L678.30-20.83L678.30-20.83Q681.75-25.35 686.21-34.03L686.21-34.03L686.21-34.03Q690.68-42.72 693.35-48.02L693.35-48.02L693.35-48.02Q696.03-53.31 698.59-58.37L698.59-58.37L698.59-58.37Q701.15-63.43 705.31-71.70L705.31-71.70L705.31-71.70Q709.48-79.97 713.52-87.94ZM797.89-13.33L797.89-13.33L800.51-10.35L800.51-10.35Q797.54-5.71 793.31-3.09L793.31-3.09L793.31-3.09Q789.09-0.48 784.81-0.48L784.81-0.48L784.81-0.48Q780.52-0.48 778.02-2.92L778.02-2.92L778.02-2.92Q775.52-5.36 775.52-9.64L775.52-9.64L775.52-9.64Q775.52-19.64 783.02-37.25L783.02-37.25L783.02-37.25Q776.95-36.30 770.88-34.39L770.88-34.39L770.05-39.03L769.93-39.15L769.93-39.15Q775.88-41.65 785.52-43.20L785.52-43.20L785.52-43.20Q786.47-44.98 789.80-51.88L789.80-51.88L789.80-51.88Q796.47-65.57 799.32-69.62L799.32-69.62L804.44-67.59L804.44-67.59Q803.25-64.97 800.28-58.85L800.28-58.85L800.28-58.85Q797.30-52.72 793.61-44.98L793.61-44.98L793.61-44.98Q798.97-45.34 802.06-45.34L802.06-45.34L802.06-45.34Q805.15-45.34 806.82-44.39L806.82-44.39L806.82-39.27L806.82-39.27Q805.15-39.63 802.00-39.63L802.00-39.63L802.00-39.63Q798.85-39.63 790.75-38.56L790.75-38.56L790.75-38.56Q783.73-22.85 783.73-15.71L783.73-15.71L783.73-15.71Q783.73-12.97 785.46-11.19L785.46-11.19L785.46-11.19Q787.19-9.40 790.10-9.40L790.10-9.40L790.10-9.40Q793.02-9.40 797.89-13.33ZM837.05-33.44L843.23-35.34L843.23-35.34Q846.33-30.23 846.33-24.04L846.33-24.04L846.33-24.04Q846.33-14.40 839.66-6.84L839.66-6.84L839.66-6.84Q833 0.71 823.96 0.71L823.96 0.71L823.96 0.71Q817.05 0.71 813.19-3.27L813.19-3.27L813.19-3.27Q809.32-7.26 809.32-14.28L809.32-14.28L809.32-14.28Q809.32-25.59 818.13-34.57L818.13-34.57L818.13-34.57Q826.93-43.55 837.88-43.55L837.88-43.55L837.88-43.55Q839.90-43.55 840.74-43.44L840.74-43.44L841.09-39.51L841.09-39.51Q831.57-39.51 825.26-34.03L825.26-34.03L825.26-34.03Q818.96-28.56 818.96-19.99L818.96-19.99L818.96-19.99Q818.96-14.88 821.46-11.72L821.46-11.72L821.46-11.72Q823.96-8.57 828.78-8.57L828.78-8.57L828.78-8.57Q833.60-8.57 836.45-12.85L836.45-12.85L836.45-12.85Q839.31-17.14 839.31-22.91L839.31-22.91L839.31-22.91Q839.31-28.68 837.05-33.44L837.05-33.44ZM876.44-33.44L882.62-35.34L882.62-35.34Q885.72-30.23 885.72-24.04L885.72-24.04L885.72-24.04Q885.72-14.40 879.05-6.84L879.05-6.84L879.05-6.84Q872.39 0.71 863.35 0.71L863.35 0.71L863.35 0.71Q856.44 0.71 852.58-3.27L852.58-3.27L852.58-3.27Q848.71-7.26 848.71-14.28L848.71-14.28L848.71-14.28Q848.71-25.59 857.51-34.57L857.51-34.57L857.51-34.57Q866.32-43.55 877.27-43.55L877.27-43.55L877.27-43.55Q879.29-43.55 880.12-43.44L880.12-43.44L880.48-39.51L880.48-39.51Q870.96-39.51 864.65-34.03L864.65-34.03L864.65-34.03Q858.35-28.56 858.35-19.99L858.35-19.99L858.35-19.99Q858.35-14.88 860.85-11.72L860.85-11.72L860.85-11.72Q863.35-8.57 868.16-8.57L868.16-8.57L868.16-8.57Q872.98-8.57 875.84-12.85L875.84-12.85L875.84-12.85Q878.70-17.14 878.70-22.91L878.70-22.91L878.70-22.91Q878.70-28.68 876.44-33.44L876.44-33.44ZM906.66-11.42L906.66-11.42L909.16-9.40L909.16-9.40Q905.11-3.09 902.20-0.30L902.20-0.30L902.20-0.30Q899.28 2.50 895.71 2.50L895.71 2.50L895.71 2.50Q892.14 2.50 889.88-0.36L889.88-0.36L889.88-0.36Q887.62-3.21 887.62-7.50L887.62-7.50L887.62-7.50Q887.62-15.83 898.57-43.38L898.57-43.38L898.57-43.38Q909.52-70.92 921.06-91.87L921.06-91.87L926.30-89.01L926.30-89.01Q914.63-66.40 905.23-44.09L905.23-44.09L905.23-44.09Q895.83-21.78 895.83-12.02L895.83-12.02L895.83-12.02Q895.83-6.43 900.00-6.43L900.00-6.43L900.00-6.43Q903.33-6.43 906.66-11.42ZM959.26-46.53L959.26-46.53L958.19-41.89L958.19-41.89Q956.17-42.13 952.95-42.13L952.95-42.13L952.95-42.13Q941.05-42.13 941.05-34.27L941.05-34.27L941.05-34.27Q941.05-32.61 945.87-24.51L945.87-24.51L945.87-24.51Q950.69-16.42 950.69-13.69L950.69-13.69L950.69-13.69Q950.69-7.26 946.35-3.63L946.35-3.63L946.35-3.63Q942.00 0 934.75 0L934.75 0L934.75 0Q924.75 0 918.68-11.07L918.68-11.07L923.20-14.28L923.20-14.28Q924.87-12.97 926.77-11.13L926.77-11.13L926.77-11.13Q928.68-9.28 929.63-8.57L929.63-8.57L929.63-8.57Q931.89-6.55 934.63-6.55L934.63-6.55L934.63-6.55Q937.36-6.55 939.39-8.51L939.39-8.51L939.39-8.51Q941.41-10.47 941.41-13.39L941.41-13.39L941.41-13.39Q941.41-16.30 936.23-24.28L936.23-24.28L936.23-24.28Q931.06-32.25 931.06-35.46L931.06-35.46L931.06-35.46Q931.06-41.29 935.99-44.39L935.99-44.39L935.99-44.39Q940.93-47.48 948.97-47.48L948.97-47.48L948.97-47.48Q957.00-47.48 959.26-46.53Z" fill="#000000"></path></g></g><style>text {
  font-size: 64px;
  font-family: Arial Black;
  dominant-baseline: central;
  text-anchor: middle;
}</style></svg>